name C:\Users\antoi\Documents\MyRepositories\predsim_tutorial\Results\Case_0\motion.mot
datacolumns 124
datarows 4
range 0.00000000 0.03334071
endheader 
time	pelvis_tilt	pelvis_list	pelvis_rotation	pelvis_tx	pelvis_ty	pelvis_tz	hip_flexion_l	hip_adduction_l	hip_rotation_l	hip_flexion_r	hip_adduction_r	hip_rotation_r	knee_angle_l	knee_angle_r	ankle_angle_l	ankle_angle_r	subtalar_angle_l	subtalar_angle_r	mtp_angle_l	mtp_angle_r	lumbar_extension	lumbar_bending	lumbar_rotation	arm_flex_l	arm_add_l	arm_rot_l	arm_flex_r	arm_add_r	arm_rot_r	elbow_flex_l	elbow_flex_r	glut_med1_l/activation	glut_med2_l/activation	glut_med3_l/activation	glut_min1_l/activation	glut_min2_l/activation	glut_min3_l/activation	semimem_l/activation	semiten_l/activation	bifemlh_l/activation	bifemsh_l/activation	sar_l/activation	add_long_l/activation	add_brev_l/activation	add_mag1_l/activation	add_mag2_l/activation	add_mag3_l/activation	tfl_l/activation	pect_l/activation	grac_l/activation	glut_max1_l/activation	glut_max2_l/activation	glut_max3_l/activation	iliacus_l/activation	psoas_l/activation	quad_fem_l/activation	gem_l/activation	peri_l/activation	rect_fem_l/activation	vas_med_l/activation	vas_int_l/activation	vas_lat_l/activation	med_gas_l/activation	lat_gas_l/activation	soleus_l/activation	tib_post_l/activation	flex_dig_l/activation	flex_hal_l/activation	tib_ant_l/activation	per_brev_l/activation	per_long_l/activation	per_tert_l/activation	ext_dig_l/activation	ext_hal_l/activation	ercspn_l/activation	intobl_l/activation	extobl_l/activation	glut_med1_r/activation	glut_med2_r/activation	glut_med3_r/activation	glut_min1_r/activation	glut_min2_r/activation	glut_min3_r/activation	semimem_r/activation	semiten_r/activation	bifemlh_r/activation	bifemsh_r/activation	sar_r/activation	add_long_r/activation	add_brev_r/activation	add_mag1_r/activation	add_mag2_r/activation	add_mag3_r/activation	tfl_r/activation	pect_r/activation	grac_r/activation	glut_max1_r/activation	glut_max2_r/activation	glut_max3_r/activation	iliacus_r/activation	psoas_r/activation	quad_fem_r/activation	gem_r/activation	peri_r/activation	rect_fem_r/activation	vas_med_r/activation	vas_int_r/activation	vas_lat_r/activation	med_gas_r/activation	lat_gas_r/activation	soleus_r/activation	tib_post_r/activation	flex_dig_r/activation	flex_hal_r/activation	tib_ant_r/activation	per_brev_r/activation	per_long_r/activation	per_tert_r/activation	ext_dig_r/activation	ext_hal_r/activation	ercspn_r/activation	intobl_r/activation	extobl_r/activation	
          0.00000000	         -7.98950787	         -4.76363962	          6.84129860	          0.00000000	          0.89378747	         -0.00677185	        -12.72957108	         -3.09303854	          7.18504405	         36.05249471	          4.02300986	         -3.36058078	         -8.92429458	        -11.91397359	          5.17087460	         13.55652400	         -0.29298475	         -7.52060459	         33.38207551	          0.28929736	          2.65559294	          1.69949497	         -1.64238076	          0.12097073	        -13.46168559	         17.79108540	         -7.06171291	        -13.57624256	         10.45899074	         84.56847405	          0.56067530	          0.15998945	          0.10910814	          0.09866791	          0.13141348	          0.15458397	          0.11695156	          0.05000143	          0.05000055	          0.05000037	          0.09540552	          0.08317994	          0.14755918	          0.12387408	          0.06218140	          0.05001147	          0.05000129	          0.36313729	          0.08322232	          0.05004321	          0.05000880	          0.05000526	          0.05000356	          0.31368296	          0.65568873	          0.07106943	          0.06925529	          0.09867731	          0.10085509	          0.05013867	          0.05013720	          0.06335084	          0.30202827	          0.44523779	          0.27962044	          0.46422162	          0.54426137	          0.50481602	          0.05000010	          0.05000020	          0.05000012	          0.05000030	          0.05000009	          0.05000048	          0.05000040	          0.05000011	          0.05000009	          0.10110977	          0.05926130	          0.05000018	          0.11495302	          0.05926249	          0.05923244	          0.31720716	          0.05926178	          0.10625732	          0.06533201	          0.05709419	          0.06261372	          0.08839837	          0.15826146	          0.14033935	          0.11162656	          0.05000153	          0.05003671	          0.12585959	          0.05926076	          0.05000029	          0.14676634	          0.05730932	          0.07023351	          0.31825475	          0.15215139	          0.18418458	          0.07023772	          0.05000135	          0.12355840	          0.07024453	          0.05000003	          0.05000007	          0.05000000	          0.05000063	          0.05000135	          0.05000046	          0.59697681	          0.36145262	          0.22094258	          0.36649148	          0.72177025	          0.28356960	          0.11174747	          0.09041577	          0.08324797	
          0.01111357	         -7.98174197	         -4.81610883	          7.15730598	          0.01773007	          0.89201043	         -0.00653519	        -12.50231033	         -3.23893295	          6.63321525	         35.54086834	          4.19843960	         -3.10937653	        -11.35404613	        -12.71114934	          4.57512628	         12.82688241	          0.15398386	         -7.94271429	         34.92667486	          0.29015620	          2.80424441	          1.84651756	         -1.70432757	         -0.24742293	        -13.48001351	         18.12949841	         -8.09631126	        -13.61724786	          9.85776976	         86.97332432	          0.23650571	          0.26205336	          0.09205686	          0.08324819	          0.11087713	          0.13042592	          0.09867454	          0.05000168	          0.05000125	          0.05000561	          0.08049565	          0.07018124	          0.18239551	          0.16883349	          0.10264805	          0.05020330	          0.15928421	          0.36561542	          0.07023939	          0.05003468	          0.05001642	          0.05000881	          0.05001086	          0.26466096	          0.58017465	          0.05996293	          0.05843364	          0.08325614	          0.08509358	          0.05489480	          0.05922349	          0.05506716	          0.25482755	          0.37565651	          0.25475624	          0.43135166	          0.50790229	          0.46385402	          0.05000012	          0.05000021	          0.05000015	          0.05000031	          0.05000012	          0.05000059	          0.06919714	          0.05000014	          0.05000011	          0.19582719	          0.05000027	          0.30543707	          0.09698851	          0.05000129	          0.05000041	          0.27545062	          0.05000053	          0.09783976	          0.05512204	          0.05000097	          0.07038224	          0.12600903	          0.16459988	          0.13316638	          0.12995296	          0.05000139	          0.05932495	          0.10619138	          0.05000028	          0.11744528	          0.14709812	          0.05926182	          0.05926153	          0.26851863	          0.12837365	          0.28377848	          0.05926143	          0.05972135	          0.10424906	          0.05926749	          0.06653875	          0.07023800	          0.06481264	          0.05938398	          0.05926188	          0.05926244	          0.50368178	          0.32074934	          0.18641423	          0.30921669	          0.65257098	          0.23925366	          0.10926337	          0.07628576	          0.07023807	
          0.02222714	         -7.96782077	         -4.84516652	          7.44644317	          0.03562494	          0.89028542	         -0.00625604	        -12.16227248	         -3.37645581	          6.07745931	         34.91844982	          4.36636043	         -2.83557903	        -14.00588367	        -13.60861442	          3.92158129	         12.20884904	          0.60817487	         -8.35459863	         36.09415073	          0.27293291	          2.96428984	          1.97769630	         -1.75618664	         -0.65240985	        -13.50008755	         18.42939725	         -9.14980018	        -13.65554171	          9.37937722	         89.16683300	          0.07199179	          0.27646196	          0.07767033	          0.07023826	          0.25761769	          0.11004331	          0.08325383	          0.05002069	          0.05000070	          0.05000053	          0.06791589	          0.05921394	          0.21296635	          0.24748669	          0.08670060	          0.06915260	          0.13439286	          0.41224452	          0.05926482	          0.05000222	          0.05000495	          0.05000354	          0.05000270	          0.22330034	          0.54446247	          0.05059210	          0.05000194	          0.07024498	          0.07179531	          0.05002205	          0.05008009	          0.08000618	          0.21500331	          0.31694928	          0.22434418	          0.40686633	          0.42871645	          0.40945626	          0.05000276	          0.05000017	          0.05000010	          0.05000049	          0.05000020	          0.05000207	          0.08868539	          0.05000004	          0.05000007	          0.25747929	          0.29011181	          0.42541000	          0.08183902	          0.21732441	          0.27548814	          0.23240349	          0.09410426	          0.08255098	          0.09815790	          0.05925817	          0.05938306	          0.10631650	          0.13887660	          0.11235567	          0.14488635	          0.05000104	          0.05005478	          0.08969724	          0.21683932	          0.18545118	          0.16399238	          0.05000071	          0.05000066	          0.28447130	          0.10831316	          0.23943309	          0.05000016	          0.05038819	          0.08795714	          0.05000525	          0.05614015	          0.05926131	          0.05468378	          0.05010354	          0.05000065	          0.05000111	          0.70301069	          0.46130477	          0.24063008	          0.54947637	          0.79263702	          0.42531382	          0.12158763	          0.08733275	          0.05926135	
          0.03334071	         -7.95026772	         -4.84971054	          7.70311152	          0.05343238	          0.88879031	         -0.00591847	        -11.69032680	         -3.50848251	          5.53427915	         34.30366822	          4.53465646	         -2.55782787	        -16.86830982	        -14.51066040	          3.23883671	         11.53378190	          1.08168467	         -8.76617504	         36.66436004	          0.25152897	          3.11502463	          2.09339762	         -1.79801758	         -1.05574638	        -13.51708532	         18.68876536	        -10.15299274	        -13.68272291	          9.04350219	         91.09066302	          0.00845418	          0.23325763	          0.06553213	          0.05926151	          0.33916000	          0.09284611	          0.07024307	          0.05029927	          0.05000099	          0.05000078	          0.05730212	          0.05000139	          0.25146779	          0.30559251	          0.13470925	          0.10627152	          0.13423869	          0.43266990	          0.05000563	          0.05000194	          0.05000582	          0.05000388	          0.05000262	          0.18840359	          0.49452855	          0.05000028	          0.05000129	          0.05926719	          0.06057527	          0.06397272	          0.06555251	          0.06777842	          0.18140278	          0.26741675	          0.19886350	          0.36484932	          0.36171762	          0.34546784	          0.05000026	          0.05000038	          0.05000048	          0.05000058	          0.05000117	          0.05000101	          0.10979943	          0.05000004	          0.05000008	          0.32910233	          0.38958856	          0.52306588	          0.10643526	          0.22860423	          0.34242902	          0.19608372	          0.08696854	          0.07979556	          0.08281796	          0.05000062	          0.05010302	          0.08970162	          0.12518968	          0.16628707	          0.16732278	          0.05000077	          0.05000623	          0.08125006	          0.27970178	          0.23055200	          0.19911188	          0.05000018	          0.05000020	          0.27853506	          0.09138704	          0.29859878	          0.05000018	          0.11759660	          0.12572259	          0.12322959	          0.05000005	          0.05000018	          0.05000002	          0.05000013	          0.05000051	          0.05000046	          0.76873198	          0.43964075	          0.21659330	          0.65742778	          0.81414631	          0.46842262	          0.13456250	          0.08674592	          0.05000015	
